<svg width="20" height="20" viewBox="0 0 20 20" fill="none" xmlns="http://www.w3.org/2000/svg">
<g clip-path="url(#clip0_554_2293)">
<path d="M7.9165 2.5H12.0832C12.4147 2.5 12.7326 2.6317 12.9671 2.86612C13.2015 3.10054 13.3332 3.41848 13.3332 3.75C13.3332 4.52355 13.0259 5.26541 12.4789 5.81239C11.9319 6.35938 11.1901 6.66667 10.4165 6.66667H9.58317C8.80962 6.66667 8.06776 6.35938 7.52078 5.81239C6.97379 5.26541 6.6665 4.52355 6.6665 3.75C6.6665 3.41848 6.7982 3.10054 7.03262 2.86612C7.26704 2.6317 7.58498 2.5 7.9165 2.5Z" stroke="black" stroke-width="1.5" stroke-linecap="round" stroke-linejoin="round"/>
<path d="M3.3335 14.1667V13.3334C3.3335 11.5653 4.03588 9.86961 5.28612 8.61937C6.53636 7.36913 8.23205 6.66675 10.0002 6.66675C11.7683 6.66675 13.464 7.36913 14.7142 8.61937C15.9645 9.86961 16.6668 11.5653 16.6668 13.3334V14.1667C16.6668 15.0508 16.3156 15.8986 15.6905 16.5238C15.0654 17.1489 14.2176 17.5001 13.3335 17.5001H6.66683C5.78277 17.5001 4.93493 17.1489 4.30981 16.5238C3.68469 15.8986 3.3335 15.0508 3.3335 14.1667Z" stroke="black" stroke-width="1.5" stroke-linecap="round" stroke-linejoin="round"/>
</g>
<defs>
<clipPath id="clip0_554_2293">
<rect width="20" height="20" fill="white"/>
</clipPath>
</defs>
</svg>
